<svg width="234" height="230" viewBox="0 0 234 230" fill="none" xmlns="http://www.w3.org/2000/svg">
<mask id="mask0_2_34" style="mask-type:alpha" maskUnits="userSpaceOnUse" x="29" y="30" width="176" height="171">
<ellipse cx="117.282" cy="115.024" rx="88.4882" ry="84.1248" transform="rotate(26.2721 117.282 115.024)" fill="#EA580C" fill-opacity="0.7"/>
</mask>
<g mask="url(#mask0_2_34)">
<rect x="79.7821" y="-34.3271" width="5.91894" height="234.649" transform="rotate(26.2721 79.7821 -34.3271)" fill="#EA580C" fill-opacity="0.7"/>
<rect x="87.2127" y="-30.6592" width="5.91894" height="234.649" transform="rotate(26.2721 87.2127 -30.6592)" fill="#EA580C" fill-opacity="0.7"/>
<rect x="94.6432" y="-26.9913" width="5.91894" height="234.649" transform="rotate(26.2721 94.6432 -26.9913)" fill="#EA580C" fill-opacity="0.7"/>
<rect x="102.074" y="-23.3234" width="5.91894" height="234.649" transform="rotate(26.2721 102.074 -23.3234)" fill="#EA580C" fill-opacity="0.7"/>
<rect x="109.504" y="-19.6555" width="5.91894" height="234.649" transform="rotate(26.2721 109.504 -19.6555)" fill="#EA580C" fill-opacity="0.7"/>
<rect x="116.935" y="-15.9877" width="5.91894" height="234.649" transform="rotate(26.2721 116.935 -15.9877)" fill="#EA580C" fill-opacity="0.7"/>
<rect x="124.365" y="-12.3197" width="5.91894" height="234.649" transform="rotate(26.2721 124.365 -12.3197)" fill="#EA580C" fill-opacity="0.7"/>
<rect x="131.796" y="-8.65186" width="5.91894" height="234.649" transform="rotate(26.2721 131.796 -8.65186)" fill="#EA580C" fill-opacity="0.7"/>
<rect x="139.226" y="-4.98389" width="5.91894" height="234.649" transform="rotate(26.2721 139.226 -4.98389)" fill="#EA580C" fill-opacity="0.7"/>
<rect x="146.657" y="-1.31604" width="5.91894" height="234.649" transform="rotate(26.2721 146.657 -1.31604)" fill="#EA580C" fill-opacity="0.7"/>
<rect x="154.088" y="2.35181" width="5.91894" height="234.649" transform="rotate(26.2721 154.088 2.35181)" fill="#EA580C" fill-opacity="0.7"/>
<rect x="161.518" y="6.01978" width="5.91894" height="234.649" transform="rotate(26.2721 161.518 6.01978)" fill="#EA580C" fill-opacity="0.7"/>
<rect x="168.949" y="9.68762" width="5.91894" height="234.649" transform="rotate(26.2721 168.949 9.68762)" fill="#EA580C" fill-opacity="0.7"/>
<rect x="176.379" y="13.3556" width="5.91894" height="234.649" transform="rotate(26.2721 176.379 13.3556)" fill="#EA580C" fill-opacity="0.7"/>
<rect x="183.81" y="17.0234" width="5.91894" height="234.649" transform="rotate(26.2721 183.81 17.0234)" fill="#EA580C" fill-opacity="0.7"/>
<rect x="191.24" y="20.6914" width="5.91894" height="234.649" transform="rotate(26.2721 191.24 20.6914)" fill="#EA580C" fill-opacity="0.7"/>
<rect x="198.671" y="24.3593" width="5.91894" height="234.649" transform="rotate(26.2721 198.671 24.3593)" fill="#EA580C" fill-opacity="0.7"/>
<rect x="206.101" y="28.0272" width="5.91894" height="234.649" transform="rotate(26.2721 206.101 28.0272)" fill="#EA580C" fill-opacity="0.7"/>
<rect x="213.532" y="31.6951" width="5.91894" height="234.649" transform="rotate(26.2721 213.532 31.6951)" fill="#EA580C" fill-opacity="0.7"/>
<rect x="220.962" y="35.363" width="5.91894" height="234.649" transform="rotate(26.2721 220.962 35.363)" fill="#EA580C" fill-opacity="0.7"/>
<rect x="228.393" y="39.0309" width="5.91894" height="234.649" transform="rotate(26.2721 228.393 39.0309)" fill="#EA580C" fill-opacity="0.7"/>
<rect x="235.824" y="42.6987" width="5.91894" height="234.649" transform="rotate(26.2721 235.824 42.6987)" fill="#EA580C" fill-opacity="0.7"/>
<rect x="243.254" y="46.3667" width="5.91894" height="234.649" transform="rotate(26.2721 243.254 46.3667)" fill="#EA580C" fill-opacity="0.7"/>
<rect x="250.685" y="50.0345" width="5.91894" height="234.649" transform="rotate(26.2721 250.685 50.0345)" fill="#EA580C" fill-opacity="0.7"/>
</g>
</svg>
