<svg width="234" height="230" viewBox="0 0 234 230" fill="none" xmlns="http://www.w3.org/2000/svg">
<mask id="mask0_4_9" style="mask-type:alpha" maskUnits="userSpaceOnUse" x="29" y="29" width="176" height="171">
<ellipse cx="117.282" cy="114.603" rx="88.4882" ry="84.1248" transform="rotate(26.2721 117.282 114.603)" fill="#1E40AF" fill-opacity="0.7"/>
</mask>
<g mask="url(#mask0_4_9)">
<rect x="79.7822" y="-34.7482" width="5.91894" height="234.649" transform="rotate(26.2721 79.7822 -34.7482)" fill="#1E40AF" fill-opacity="0.7"/>
<rect x="87.2127" y="-31.0802" width="5.91894" height="234.649" transform="rotate(26.2721 87.2127 -31.0802)" fill="#1E40AF" fill-opacity="0.7"/>
<rect x="94.6432" y="-27.4124" width="5.91894" height="234.649" transform="rotate(26.2721 94.6432 -27.4124)" fill="#1E40AF" fill-opacity="0.7"/>
<rect x="102.074" y="-23.7444" width="5.91894" height="234.649" transform="rotate(26.2721 102.074 -23.7444)" fill="#1E40AF" fill-opacity="0.7"/>
<rect x="109.504" y="-20.0765" width="5.91894" height="234.649" transform="rotate(26.2721 109.504 -20.0765)" fill="#1E40AF" fill-opacity="0.7"/>
<rect x="116.935" y="-16.4087" width="5.91894" height="234.649" transform="rotate(26.2721 116.935 -16.4087)" fill="#1E40AF" fill-opacity="0.7"/>
<rect x="124.365" y="-12.7407" width="5.91894" height="234.649" transform="rotate(26.2721 124.365 -12.7407)" fill="#1E40AF" fill-opacity="0.7"/>
<rect x="131.796" y="-9.07288" width="5.91894" height="234.649" transform="rotate(26.2721 131.796 -9.07288)" fill="#1E40AF" fill-opacity="0.7"/>
<rect x="139.227" y="-5.40491" width="5.91894" height="234.649" transform="rotate(26.2721 139.227 -5.40491)" fill="#1E40AF" fill-opacity="0.7"/>
<rect x="146.657" y="-1.73706" width="5.91894" height="234.649" transform="rotate(26.2721 146.657 -1.73706)" fill="#1E40AF" fill-opacity="0.7"/>
<rect x="154.088" y="1.93079" width="5.91894" height="234.649" transform="rotate(26.2721 154.088 1.93079)" fill="#1E40AF" fill-opacity="0.7"/>
<rect x="161.518" y="5.59875" width="5.91894" height="234.649" transform="rotate(26.2721 161.518 5.59875)" fill="#1E40AF" fill-opacity="0.7"/>
<rect x="168.949" y="9.2666" width="5.91894" height="234.649" transform="rotate(26.2721 168.949 9.2666)" fill="#1E40AF" fill-opacity="0.7"/>
<rect x="176.379" y="12.9346" width="5.91894" height="234.649" transform="rotate(26.2721 176.379 12.9346)" fill="#1E40AF" fill-opacity="0.7"/>
<rect x="183.81" y="16.6024" width="5.91894" height="234.649" transform="rotate(26.2721 183.81 16.6024)" fill="#1E40AF" fill-opacity="0.7"/>
<rect x="191.24" y="20.2704" width="5.91894" height="234.649" transform="rotate(26.2721 191.24 20.2704)" fill="#1E40AF" fill-opacity="0.7"/>
<rect x="198.671" y="23.9382" width="5.91894" height="234.649" transform="rotate(26.2721 198.671 23.9382)" fill="#1E40AF" fill-opacity="0.7"/>
<rect x="206.101" y="27.6062" width="5.91894" height="234.649" transform="rotate(26.2721 206.101 27.6062)" fill="#1E40AF" fill-opacity="0.7"/>
<rect x="213.532" y="31.274" width="5.91894" height="234.649" transform="rotate(26.2721 213.532 31.274)" fill="#1E40AF" fill-opacity="0.7"/>
<rect x="220.962" y="34.942" width="5.91894" height="234.649" transform="rotate(26.2721 220.962 34.942)" fill="#1E40AF" fill-opacity="0.7"/>
<rect x="228.393" y="38.6099" width="5.91894" height="234.649" transform="rotate(26.2721 228.393 38.6099)" fill="#1E40AF" fill-opacity="0.7"/>
<rect x="235.824" y="42.2777" width="5.91894" height="234.649" transform="rotate(26.2721 235.824 42.2777)" fill="#1E40AF" fill-opacity="0.7"/>
<rect x="243.254" y="45.9457" width="5.91894" height="234.649" transform="rotate(26.2721 243.254 45.9457)" fill="#1E40AF" fill-opacity="0.7"/>
<rect x="250.685" y="49.6135" width="5.91894" height="234.649" transform="rotate(26.2721 250.685 49.6135)" fill="#1E40AF" fill-opacity="0.7"/>
</g>
</svg>
